<?xml version="1.0" encoding="iso-8859-1"?>
<!-- Generator: Adobe Illustrator 19.0.0, SVG Export Plug-In . SVG Version: 6.00 Build 0)  -->
<svg xmlns="http://www.w3.org/2000/svg" xmlns:xlink="http://www.w3.org/1999/xlink" version="1.1" id="Layer_1" x="0px" y="0px" viewBox="0 0 512 512" style="enable-background:new 0 0 512 512;" xml:space="preserve" width="512" height="512">
<g>
	<g>
		<g>
			<g>
				<g>
					<path style="fill:#D67728;" d="M299.97,88.96c0,8.16-4.31,15.28-10.76,19.29v66.81h-39.45v-63.38V97.33v-8.37       c0-12.54,10.17-22.71,22.71-22.71h4.78c6.27,0,11.95,2.54,16.07,6.65C297.43,77.01,299.97,82.69,299.97,88.96z"/>
				</g>
			</g>
		</g>
		<path style="fill:#C65A2E;" d="M269.733,97.33v-8.37c0-9.876,6.31-18.278,15.116-21.404c-2.377-0.843-4.934-1.306-7.599-1.306    h-4.78c-12.54,0-22.71,10.17-22.71,22.71v8.37v14.35v63.38h19.973v-63.38V97.33z"/>
		<g>
			<g>
				<path style="fill:#FCB630;" d="M504.5,390.26v16.122c0,1.617-1.629,2.726-3.133,2.133L471.5,396.75h-86.35      c8.41-6.18,15.2-14.43,19.63-24h66.72h6h9.49C496.661,372.75,504.5,380.59,504.5,390.26z"/>
			</g>
			<g>
				<path style="fill:#FCB630;" d="M504.5,366.26v4.197c0,1.266-1.027,2.293-2.293,2.293H486.99h-9.49h-6h-66.72      c3.4-7.34,5.4-15.45,5.67-24h61.05h6h9.49C496.661,348.75,504.5,356.59,504.5,366.26z"/>
			</g>
			<path style="fill:#F58A1F;" d="M502.207,360.75H486.99h-9.49h-6h-62.615c-0.964,4.175-2.342,8.193-4.105,12h66.72h6h9.49h15.217     c1.266,0,2.293-1.027,2.293-2.293v-4.197c0-2.069-0.378-4.045-1.036-5.888C503.102,360.61,502.672,360.75,502.207,360.75z"/>
		</g>
		<path style="fill:#F58A1F;" d="M501.367,395.456L471.5,383.691h-73.252c-3.697,4.974-8.103,9.389-13.098,13.06h86.35    l29.867,11.766c1.504,0.593,3.133-0.516,3.133-2.133v-13.06C504.5,394.94,502.871,396.049,501.367,395.456z"/>
		<g id="XMLID_123_">
			<g>
				<g>
					<path style="fill:#EF555E;" d="M46.92,322.85L9.844,343.448c-0.925,0.514-0.825,1.875,0.165,2.248L53.19,361.98h2.898v-39.13       H46.92z"/>
				</g>
			</g>
		</g>
		<g>
			<path style="fill:#E93E4E;" d="M108.593,296.208l-1.963,5.976l-18.052-5.928c-9.966-3.273-15.396-14.013-12.123-23.98     c1.635-4.978,5.144-8.836,9.482-11.022c4.332-2.198,9.519-2.737,14.497-1.102s8.836,5.144,11.022,9.482     c0.306,0.606,0.584,1.234,0.824,1.881c0.09,0.24,0.176,0.489,0.263,0.739c0.173,0.499,0.314,0.998,0.43,1.51     c0.045,0.183,0.09,0.366,0.123,0.556c0.084,0.354,0.145,0.711,0.198,1.065c0.026,0.177,0.046,0.341,0.062,0.515     c0.042,0.193,0.052,0.386,0.063,0.578c0.029,0.136,0.036,0.275,0.04,0.424c0.02,0.259,0.028,0.525,0.038,0.781     c0.012,0.509,0.008,1.034-0.015,1.553c-0.02,0.446-0.062,0.895-0.127,1.348c-0.024,0.202-0.049,0.405-0.083,0.604     c-0.012,0.07-0.025,0.139-0.037,0.209c-0.043,0.291-0.105,0.576-0.167,0.861c-0.043,0.196-0.09,0.402-0.143,0.595     c-0.04,0.155-0.081,0.31-0.124,0.475c-0.078,0.269-0.156,0.538-0.243,0.804L108.593,296.208z"/>
		</g>
		<g>
			<g>
				<path style="fill:#EF555E;" d="M82.5,293.102v6.29h-19c-10.49,0-19-8.51-19-19c0-5.24,2.13-10,5.57-13.43      c3.43-3.44,8.19-5.57,13.43-5.57s10,2.13,13.43,5.57c0.48,0.48,0.94,0.99,1.37,1.53c0.16,0.2,0.32,0.41,0.48,0.62      c0.32,0.42,0.61,0.85,0.88,1.3c0.1,0.16,0.2,0.32,0.29,0.49c0.19,0.31,0.36,0.63,0.52,0.95c0.08,0.16,0.15,0.31,0.22,0.47      c0.1,0.17,0.17,0.35,0.24,0.53c0.07,0.12,0.12,0.25,0.17,0.39c0.1,0.24,0.19,0.49,0.28,0.73c0.17,0.48,0.33,0.98,0.47,1.48      c0.12,0.43,0.22,0.87,0.3,1.32c0.04,0.2,0.08,0.4,0.11,0.6c0.01,0.07,0.02,0.14,0.03,0.21c0.05,0.29,0.08,0.58,0.11,0.87      c0.02,0.2,0.04,0.41,0.05,0.61c0.01,0.16,0.02,0.32,0.03,0.49c0.01,0.28,0.02,0.56,0.02,0.84V293.102z"/>
			</g>
		</g>
		<g>
			<g>
				<path style="fill:#FFC966;" d="M364.5,284.75h-3.2c3.97-8.96,6.2-18.87,6.2-29.3c0-2.47-2.01-4.48-4.48-4.48h-30.78h-82.48      h-1.12c-21.61,0-39.14,17.53-39.14,39.14v33.16c0,0.88,0.2,3.77-0.02,4.48H125.5c-4.11-18.31-20.45-32-40-32      c-22.64,0-41,18.36-41,41s18.36,41,41,41c11.32,0,21.56-4.59,28.98-12h95c6.63,20.6,23.74,36.5,45.05,41.41l130.55-1.92      c24.12-8.49,41.42-31.46,41.42-58.49C426.5,312.51,398.74,284.75,364.5,284.75z"/>
			</g>
		</g>
		<g>
			<path style="fill:#F69E4E;" d="M213.031,327.75c12.717,0,23.016-10.331,22.976-23.048c-0.025-7.808-0.061-14.592-0.061-14.592     c0-21.61,17.53-39.14,39.14-39.14H249.76h-1.12c-21.616,0-39.14,17.524-39.14,39.14v33.16c0,0.88,0.2,3.77-0.02,4.48H213.031z"/>
		</g>
		<g>
			<g>
				<g>
					<path style="fill:#E5E5E4;" d="M332.24,176.91v145.848c0,3.585-2.906,6.492-6.492,6.492h-69.496       c-3.585,0-6.492-2.906-6.492-6.492V169.06h74.63C328.726,169.06,332.24,172.575,332.24,176.91z"/>
				</g>
			</g>
		</g>
		<path style="fill:#BCC9CD;" d="M328.441,170.195c-1.184-0.716-2.567-1.135-4.051-1.135H300c4.01,0,7.27,4.2,7.27,9.39v150.8    h18.478c3.585,0,6.492-2.906,6.492-6.492V178.45C332.24,174.884,330.706,171.785,328.441,170.195z"/>
		<g>
			<g>
				<path style="fill:#F69E4E;" d="M426.5,346.75c0-4.32-0.445-8.536-1.286-12.607c-4.419,21.4-19.867,38.76-40.134,45.894      l-8.159,0.12c-12.914-10.855-29.558-17.407-47.711-17.407h-41.036c-11.721,0-22.76,4.613-31.083,12.989      c-1.757,1.769-3.335,3.662-4.741,5.65c-17.005-4.581-31.126-16.197-39.018-31.555c-2.963-5.766-9.012-9.288-15.495-9.288H114.48      c-7.42,7.41-17.66,12-28.98,12c-18.242,0-33.698-11.923-39.017-28.398c-1.612,4.992-2.304,10.397-1.842,16.024      c1.677,20.397,18.521,36.615,38.966,37.535c12.069,0.543,23.042-4.136,30.873-11.957h95c5.558,17.27,18.485,31.233,35.074,38.19      l0,0l0.001,0c1.528,0.641,3.088,1.22,4.675,1.739c0.175,0.057,0.351,0.113,0.527,0.168c0.602,0.191,1.208,0.372,1.817,0.545      c0.203,0.058,0.405,0.117,0.609,0.173c0.777,0.211,1.558,0.413,2.347,0.595l130.55-1.92c0.785-0.276,1.562-0.57,2.332-0.876      c0.092-0.037,0.182-0.078,0.274-0.115c0.689-0.278,1.373-0.566,2.05-0.868c0.035-0.016,0.069-0.033,0.104-0.049      c1.495-0.671,2.958-1.4,4.388-2.183l0,0l0,0C413.453,390.623,426.5,370.22,426.5,346.75z"/>
				<path style="fill:#FCB630;" d="M393.5,437.04v4.528c0,2.31-1.872,4.182-4.182,4.182H294.29c-10.99,0-20.94-4.45-28.14-11.65      c-7.144-7.144-11.581-16.995-11.649-27.884c-0.116-18.406,15.267-33.466,33.673-33.466h41.036      C364.717,372.75,393.5,401.534,393.5,437.04z"/>
				<path style="fill:#F58A1F;" d="M320.79,423.559c-10.99,0-20.94-4.45-28.14-11.65c-7.144-7.144-11.581-16.995-11.649-27.884      c-0.024-3.79,0.618-7.433,1.8-10.836c-15.93,2.588-28.404,16.447-28.3,33.027c0.069,10.888,4.505,20.74,11.649,27.884      c7.2,7.2,17.15,11.65,28.14,11.65h95.028c2.31,0,4.182-1.872,4.182-4.182v-4.528c0-4.625-0.499-9.133-1.427-13.481H320.79z"/>
			</g>
		</g>
	</g>
	<g>
		<path d="M512,372.75v-6.49c0-13.791-11.22-25.01-25.01-25.01h-53.224c-2.623-33.321-28.831-60.115-61.903-63.613    c2.085-7.177,3.137-14.604,3.137-22.187c0-6.605-5.374-11.979-11.979-11.979h-23.278v-66.555l0,0    c0-5.066-2.476-9.553-6.271-12.352c-0.164-0.13-0.332-0.252-0.5-0.374c-0.004-0.002-0.007-0.005-0.011-0.008    c-2.291-1.658-5.02-2.624-7.987-2.624l0,0h-28.268l0,0v-49.501c6.805-5.702,10.759-14.061,10.759-23.094    c0-16.66-13.554-30.214-30.214-30.214h-4.781c-16.66,0-30.214,13.554-30.214,30.214v80.095v25.191c0,4.142,3.358,7.5,7.5,7.5    s7.5-3.358,7.5-7.5v-17.691l0,0h42.058c0.208,0.348,0.454,1.004,0.454,1.894V321.75h-42.512l0,0v-97.5c0-4.142-3.358-7.5-7.5-7.5    s-7.5,3.358-7.5,7.5v19.67C219.55,247.045,202,266.563,202,290.115v30.135h-19c-4.142,0-7.5,3.358-7.5,7.5s3.358,7.5,7.5,7.5    h26.478c0.003,0,0.006-0.001,0.009-0.001c0.005,0,0.009,0.001,0.013,0.001h18c4.142,0,7.5-3.358,7.5-7.5s-3.358-7.5-7.5-7.5H217    v-30.135c0-15.261,10.86-28.033,25.257-30.996v70.131c0,4.142,3.358,7.5,7.5,7.5h82.486l0,0c4.143,0,7.5-3.358,7.5-7.5v-70.778    h20.188c-0.368,8.045-2.21,15.847-5.49,23.235c-1.03,2.32-0.817,5.003,0.566,7.131c1.384,2.128,3.75,3.412,6.288,3.412h3.205    c30.052,0,54.5,24.449,54.5,54.5c0,0.547-0.016,1.09-0.032,1.634c-0.006,0.122-0.019,0.242-0.019,0.366    c0,0.054,0.007,0.105,0.008,0.159c-0.802,20.252-12.844,38.345-30.956,47.007c-12.996-18.523-34.496-30.666-58.792-30.666h-41.494    c-19.442,0-35.735,13.701-39.755,31.953c-14.737-6.023-26.392-18.361-31.342-33.75c-0.998-3.101-3.882-5.203-7.14-5.203h-94.996    c-1.988,0-3.896,0.79-5.302,2.195c-6.327,6.323-14.736,9.805-23.681,9.805c-18.472,0-33.5-15.028-33.5-33.5s15.028-33.5,33.5-33.5    c15.541,0,29.284,10.994,32.679,26.14c0.768,3.425,3.808,5.86,7.318,5.86H153c4.142,0,7.5-3.358,7.5-7.5s-3.358-7.5-7.5-7.5    h-21.899c-3.26-8.958-9.103-16.622-16.528-22.205l5.019-14.77c4.7-13.835-2.731-28.916-16.566-33.616    c-8.977-3.051-18.508-1.104-25.427,4.669c-4.087-2.579-8.92-4.078-14.099-4.078c-14.612,0-26.5,11.888-26.5,26.5    c0,10.8,6.498,20.106,15.786,24.229c-5.032,4.605-9.088,10.257-11.83,16.604l-37.098,20.61c-2.554,1.419-4.051,4.191-3.837,7.105    c0.214,2.914,2.1,5.438,4.834,6.469l43.861,16.538C57.617,378.668,70.8,385.25,85.5,385.25c11.874,0,23.097-4.239,31.941-12    h86.807c7.82,18.914,23.782,33.57,43.279,39.753c3.41,22.747,23.077,40.247,46.759,40.247H393.5c4.143,0,7.5-3.358,7.5-7.5v-8.709    c0-9.927-2.027-19.389-5.686-27.997c2.861-1.416,5.594-3.024,8.199-4.794h66.564l31.675,12.478c0.888,0.35,1.82,0.522,2.748,0.522    c1.485,0,2.96-0.441,4.222-1.3c2.052-1.397,3.279-3.718,3.279-6.2v-19.49c0-4.191-1.042-8.142-2.872-11.616    C510.875,377.271,512,375.144,512,372.75z M257.257,161.559V88.964c0-8.389,6.825-15.214,15.214-15.214h4.781    c8.389,0,15.214,6.825,15.214,15.214c0,5.28-2.698,10.109-7.217,12.917c-2.202,1.368-3.542,3.777-3.542,6.371v53.308H257.257z     M324.743,321.75h-9.975V178.453c0-0.641-0.029-1.273-0.088-1.894h9.612c0.206,0.35,0.45,1.009,0.45,1.894v72.519V321.75z     M98.2,263.861c6.004,2.04,9.229,8.584,7.189,14.588l-3.7,10.889l-10.889-3.7c-0.271-0.092-0.537-0.194-0.8-0.307v-8.582    c0-0.478-0.014-0.953-0.039-1.425c-0.003-0.051-0.009-0.101-0.012-0.152c-0.026-0.433-0.061-0.864-0.107-1.292    c-0.002-0.015-0.004-0.03-0.006-0.045c-0.319-2.906-1.112-5.67-2.297-8.218C90.52,263.364,94.529,262.615,98.2,263.861z     M63.5,265.25c3.736,0,7.051,1.798,9.153,4.566c0.184,0.242,0.359,0.489,0.523,0.742c0.141,0.219,0.281,0.44,0.407,0.669    c0.045,0.082,0.083,0.167,0.126,0.249c0.123,0.237,0.242,0.477,0.349,0.723c0.036,0.084,0.068,0.17,0.103,0.255    c0.101,0.249,0.195,0.501,0.278,0.758c0.03,0.091,0.057,0.183,0.084,0.275c0.075,0.254,0.141,0.512,0.199,0.774    c0.022,0.099,0.044,0.197,0.064,0.297c0.051,0.265,0.09,0.533,0.123,0.804c0.011,0.096,0.027,0.191,0.036,0.288    c0.035,0.362,0.056,0.729,0.056,1.1v11.5H63.5c-6.341,0-11.5-5.159-11.5-11.5S57.159,265.25,63.5,265.25z M25.295,343.444    l11.71-6.506c0.015,3.947,0.509,7.782,1.418,11.456L25.295,343.444z M386,438.25h-91.715c-17.459,0-31.717-13.934-32.259-31.264    c0-0.017,0.002-0.033,0.001-0.05l-0.012-0.355c-0.007-0.205-0.016-0.409-0.016-0.615c0-14.179,11.535-25.715,25.715-25.715h41.494    c31.314,0,56.791,25.477,56.791,56.791V438.25z M496.949,365.25h-9.959h-55.507c0.813-2.936,1.428-5.943,1.851-9h53.656    C492.169,356.25,496.442,360.203,496.949,365.25z M497,398.734l-22.751-8.962c-0.876-0.345-1.808-0.522-2.749-0.522h-52.04    c2.197-2.842,4.176-5.85,5.911-9h61.619c5.52,0,10.01,4.49,10.01,10.01V398.734z"/>
		<path d="M72.609,342.33c1.328,0.959,2.863,1.42,4.385,1.42c2.327,0,4.62-1.079,6.086-3.109l2.109-2.92l2.92,2.109    c1.328,0.959,2.863,1.42,4.385,1.42c2.327,0,4.62-1.079,6.086-3.109c2.425-3.358,1.669-8.046-1.689-10.471l-2.92-2.109l2.109-2.92    c2.425-3.358,1.669-8.046-1.689-10.471c-3.358-2.426-8.046-1.669-10.471,1.689l-2.109,2.92l-2.92-2.109    c-3.358-2.427-8.047-1.669-10.471,1.689c-2.425,3.358-1.669,8.046,1.689,10.471l2.92,2.109l-2.109,2.92    C68.495,335.217,69.251,339.905,72.609,342.33z"/>
	</g>
</g>















</svg>
